HIERARCHY
ROOT Hips
{
 OFFSET 0.000000 0.000000 0.000000
 CHANNELS 6 Xposition Yposition Zposition Yrotation Xrotation Zrotation
 JOINT Chest
 {
  OFFSET 0.000000 9.588913 -0.003946
  CHANNELS 3 Yrotation Xrotation Zrotation
  JOINT Chest2
  {
   OFFSET 0.000000 9.541882 0.008053
   CHANNELS 3 Yrotation Xrotation Zrotation
   JOINT Chest3
   {
    OFFSET 0.000000 9.501360 0.000000
    CHANNELS 3 Yrotation Xrotation Zrotation
    JOINT Chest4
    {
     OFFSET 0.000000 9.491660 0.000000
     CHANNELS 3 Yrotation Xrotation Zrotation
     JOINT Neck
     {
      OFFSET 0.000000 14.331917 0.000000
      CHANNELS 3 Yrotation Xrotation Zrotation
      JOINT Head
      {
       OFFSET 0.000000 8.884799 0.017034
       CHANNELS 3 Yrotation Xrotation Zrotation
       End Site
       {
        OFFSET 0.000000 16.896195 0.008993
       }
      }
     }
     JOINT RightCollar
     {
      OFFSET -2.923010 9.499495 0.000000
      CHANNELS 3 Yrotation Xrotation Zrotation
      JOINT RightShoulder
      {
       OFFSET -13.795216 0.000000 0.000000
       CHANNELS 3 Yrotation Xrotation Zrotation
       JOINT RightElbow
       {
        OFFSET -30.272209 0.000000 0.000000
        CHANNELS 3 Yrotation Xrotation Zrotation
        JOINT RightWrist
        {
         OFFSET -24.478199 0.000000 0.000000
         CHANNELS 3 Yrotation Xrotation Zrotation
         End Site
         {
          OFFSET -18.090752 0.000000 0.000000
         }
        }
       }
      }
     }
     JOINT LeftCollar
     {
      OFFSET 2.923010 9.499495 0.000000
      CHANNELS 3 Yrotation Xrotation Zrotation
      JOINT LeftShoulder
      {
       OFFSET 13.795216 0.000000 0.000000
       CHANNELS 3 Yrotation Xrotation Zrotation
       JOINT LeftElbow
       {
        OFFSET 30.272209 0.000000 0.000000
        CHANNELS 3 Yrotation Xrotation Zrotation
        JOINT LeftWrist
        {
         OFFSET 24.478199 0.000000 0.000000
         CHANNELS 3 Yrotation Xrotation Zrotation
         End Site
         {
          OFFSET 18.090752 0.000000 0.000000
         }
        }
       }
      }
     }
    }
   }
  }
 }
 JOINT RightHip
 {
  OFFSET -7.826875 0.019532 0.001973
  CHANNELS 3 Yrotation Xrotation Zrotation
  JOINT RightKnee
  {
   OFFSET 0.000000 -40.546152 -0.001885
   CHANNELS 3 Yrotation Xrotation Zrotation
   JOINT RightAnkle
   {
    OFFSET 0.000000 -39.417092 -0.003189
    CHANNELS 3 Yrotation Xrotation Zrotation
    JOINT RightToe
    {
     OFFSET 0.000000 -7.579396 17.243563
     CHANNELS 3 Yrotation Xrotation Zrotation
     End Site
     {
      OFFSET 0.000000 -1.500329 6.694466
     }
    }
   }
  }
 }
 JOINT LeftHip
 {
  OFFSET 7.826875 0.019532 0.001973
  CHANNELS 3 Yrotation Xrotation Zrotation
  JOINT LeftKnee
  {
   OFFSET 0.000000 -40.546152 -0.001885
   CHANNELS 3 Yrotation Xrotation Zrotation
   JOINT LeftAnkle
   {
    OFFSET 0.000000 -39.417092 -0.003189
    CHANNELS 3 Yrotation Xrotation Zrotation
    JOINT LeftToe
    {
     OFFSET 0.000000 -7.579396 17.243563
     CHANNELS 3 Yrotation Xrotation Zrotation
     End Site
     {
      OFFSET 0.000000 -1.500329 6.694466
     }
    }
   }
  }
 }
}
MOTION
Frames: 11
Frame Time: 0.008333
13.815708 89.050003 -11.080651 147.270701 -5.882364 -0.059871 -2.831622 2.361338 -0.412198 -1.622080 1.354867 -0.184262 -2.028422 1.692726 -0.236334 -1.622080 1.354867 -0.184262 15.529252 21.714420 -4.068483 29.134880 6.821102 -11.307646 1.640402 0.430817 0.282839 12.215402 -3.043464 88.745571 0.361099 2.761210 0.496739 0.961095 -1.664865 -0.235173 5.544552 0.857113 0.991632 -8.476608 -4.779824 -90.551617 -1.021692 19.265623 1.325778 -0.348950 1.986502 0.781824 -20.257397 10.996410 -2.669711 -5.668880 3.834731 0.201977 -6.857865 -7.622627 1.740525 0.014745 -0.070009 0.015003 -18.496463 10.321663 -3.203509 -1.690708 0.311747 -0.046810 -4.857896 -4.290312 2.051474 -0.009427 0.076412 0.017820
13.805731 89.050341 -11.085281 147.292039 -5.887989 -0.063908 -2.858280 2.362869 -0.413060 -1.637432 1.355432 -0.184831 -2.047616 1.693421 -0.237105 -1.637432 1.355432 -0.184831 14.995952 21.659598 -3.994557 28.164252 6.586821 -11.071521 1.644701 0.432433 0.274645 12.199178 -3.074407 88.755830 0.368092 2.765310 0.482029 0.959936 -1.668482 -0.225173 5.582531 0.866352 0.974095 -8.430510 -4.770199 -90.566521 -1.032257 19.249264 1.315902 -0.356149 1.985230 0.784130 -20.256694 10.987690 -2.671428 -5.668031 3.862914 0.195566 -6.865132 -7.632792 1.751704 0.014980 -0.072993 0.013277 -18.493377 10.326930 -3.202575 -1.702653 0.304787 -0.052734 -4.865753 -4.282906 2.053243 -0.008894 0.076909 0.018576
13.795208 89.050625 -11.088853 147.307137 -5.891152 -0.069906 -2.884235 2.366461 -0.411121 -1.652372 1.357345 -0.183555 -2.066289 1.695810 -0.235573 -1.652372 1.357345 -0.183555 14.462102 21.601636 -3.918264 27.191832 6.349627 -10.828884 1.654380 0.430008 0.265411 12.190094 -3.100095 88.760558 0.389723 2.762144 0.472221 0.959490 -1.671999 -0.214027 5.619759 0.867556 0.949424 -8.398863 -4.753629 -90.574948 -1.039891 19.240770 1.303346 -0.363036 1.983404 0.780029 -20.253028 10.976435 -2.670473 -5.670788 3.890019 0.191529 -6.870624 -7.640929 1.759536 0.015006 -0.075781 0.012670 -18.487490 10.325955 -3.198932 -1.714718 0.306614 -0.059142 -4.869943 -4.279786 2.056483 -0.007932 0.077490 0.018581
13.784435 89.050875 -11.091957 147.318532 -5.895306 -0.076736 -2.909469 2.371370 -0.408181 -1.666982 1.360367 -0.181288 -2.084546 1.699589 -0.232806 -1.666982 1.360367 -0.181288 13.925379 21.543475 -3.841493 26.213450 6.114973 -10.581930 1.668936 0.423379 0.257670 12.181948 -3.116117 88.759753 0.426968 2.752505 0.470594 0.956889 -1.668871 -0.205981 5.650303 0.864341 0.921604 -8.383870 -4.730648 -90.579780 -1.042434 19.238553 1.294087 -0.365757 1.986491 0.770421 -20.251896 10.965770 -2.669872 -5.670967 3.916438 0.188572 -6.876678 -7.648074 1.766070 0.014637 -0.078253 0.012458 -18.483652 10.323101 -3.195545 -1.722612 0.314188 -0.065146 -4.873584 -4.279037 2.058471 -0.006362 0.077925 0.019637
13.773686 89.051134 -11.095274 147.328095 -5.903931 -0.082558 -2.935064 2.378154 -0.404753 -1.681848 1.364458 -0.178984 -2.103124 1.704706 -0.230000 -1.681848 1.364458 -0.178984 13.386907 21.487482 -3.765574 25.231131 5.887824 -10.332827 1.688139 0.412619 0.250947 12.171225 -3.123389 88.754488 0.474841 2.742449 0.476295 0.953031 -1.662328 -0.200704 5.673198 0.857361 0.894506 -8.385520 -4.702473 -90.584082 -1.036127 19.243741 1.291692 -0.361842 1.995992 0.755505 -20.256438 10.958408 -2.673434 -5.665754 3.943308 0.186600 -6.884523 -7.655438 1.772810 0.014243 -0.080435 0.011980 -18.486535 10.321006 -3.196061 -1.723314 0.327936 -0.070644 -4.878173 -4.281236 2.059782 -0.004456 0.078263 0.021238
13.762749 89.051355 -11.098635 147.334375 -5.914372 -0.085394 -2.961279 2.385565 -0.400232 -1.697008 1.368630 -0.176781 -2.122070 1.709922 -0.227323 -1.697008 1.368630 -0.176781 12.848115 21.434997 -3.691727 24.247599 5.671247 -10.083928 1.713743 0.399874 0.242008 12.160647 -3.129220 88.745289 0.524779 2.741586 0.486642 0.949864 -1.664574 -0.196711 5.693141 0.847121 0.868387 -8.409309 -4.673178 -90.590552 -1.012700 19.253511 1.298745 -0.355306 2.014472 0.736665 -20.267488 10.950858 -2.682727 -5.657026 3.970907 0.185041 -6.887143 -7.663085 1.779191 0.014140 -0.081982 0.011894 -18.496924 10.317616 -3.201617 -1.719746 0.345343 -0.076383 -4.878711 -4.284753 2.062074 -0.002876 0.078157 0.022311
13.751731 89.051506 -11.101837 147.334706 -5.924736 -0.084986 -2.987062 2.393656 -0.394836 -1.711897 1.373008 -0.174537 -2.140677 1.715397 -0.224594 -1.711896 1.373008 -0.174537 12.310643 21.385186 -3.620190 23.266010 5.464089 -9.836353 1.744532 0.384266 0.229606 12.159552 -3.139060 88.735067 0.570680 2.746313 0.495486 0.949545 -1.671878 -0.192753 5.712439 0.832743 0.843274 -8.457154 -4.646824 -90.598989 -0.970577 19.265773 1.315992 -0.348451 2.039741 0.712314 -20.283516 10.941400 -2.697188 -5.648401 3.998536 0.183835 -6.879162 -7.670921 1.784178 0.014080 -0.082382 0.012539 -18.511171 10.313076 -3.212127 -1.715598 0.362976 -0.080356 -4.873134 -4.287834 2.063676 -0.001671 0.077361 0.023195
13.741311 89.051603 -11.104915 147.326849 -5.936303 -0.083531 -3.010775 2.403890 -0.389751 -1.725509 1.378604 -0.172484 -2.157691 1.722394 -0.222105 -1.725509 1.378604 -0.172484 11.775624 21.336945 -3.548578 22.287950 5.264002 -9.586452 1.775028 0.365902 0.216457 12.173284 -3.154915 88.727242 0.611198 2.749516 0.498083 0.950755 -1.675290 -0.188987 5.733218 0.813954 0.821885 -8.518204 -4.623987 -90.606905 -0.920005 19.291097 1.339614 -0.339666 2.061703 0.681729 -20.298724 10.932402 -2.713186 -5.639534 4.025757 0.183363 -6.868666 -7.678822 1.788719 0.013615 -0.081818 0.012495 -18.520691 10.311468 -3.225012 -1.714082 0.378652 -0.080926 -4.864778 -4.290840 2.063564 -0.000478 0.076478 0.023839
13.731792 89.051611 -11.107696 147.311827 -5.948363 -0.082669 -3.033396 2.416171 -0.385421 -1.738354 1.385477 -0.170517 -2.173744 1.730988 -0.219727 -1.738353 1.385477 -0.170517 11.243629 21.290776 -3.475639 21.314073 5.071755 -9.332161 1.806603 0.346576 0.204203 12.200116 -3.176127 88.717905 0.646983 2.754052 0.498441 0.947237 -1.676177 -0.186201 5.760615 0.794155 0.802477 -8.580833 -4.604263 -90.612295 -0.870731 19.333372 1.366253 -0.329323 2.077950 0.646756 -20.309984 10.924539 -2.727594 -5.629832 4.051456 0.183424 -6.860997 -7.686167 1.793588 0.012797 -0.080709 0.011237 -18.523324 10.313363 -3.236545 -1.715451 0.391177 -0.080953 -4.855787 -4.293525 2.063792 0.000548 0.075833 0.023675
13.722974 89.051465 -11.109974 147.290871 -5.958803 -0.081930 -3.056475 2.429409 -0.381693 -1.751480 1.392911 -0.168285 -2.190150 1.740284 -0.217022 -1.751480 1.392911 -0.168285 10.715465 21.246724 -3.401953 20.345995 4.887697 -9.074842 1.841988 0.326657 0.192452 12.237142 -3.200109 88.702672 0.680902 2.763608 0.499451 0.935447 -1.673251 -0.180641 5.796418 0.777697 0.778878 -8.637408 -4.588774 -90.612982 -0.827093 19.382002 1.393146 -0.319695 2.093723 0.609288 -20.317410 10.916731 -2.740864 -5.620620 4.073764 0.185282 -6.853261 -7.693084 1.796621 0.012199 -0.078573 0.010086 -18.524945 10.316496 -3.246260 -1.714962 0.399407 -0.083046 -4.845704 -4.294483 2.065869 0.000658 0.075176 0.022606
13.714450 89.051093 -11.111442 147.266627 -5.964800 -0.080451 -3.079376 2.441638 -0.378839 -1.764642 1.399718 -0.166194 -2.206601 1.748796 -0.214491 -1.764642 1.399719 -0.166194 10.190590 21.203807 -3.326333 19.382553 4.709705 -8.812520 1.875302 0.308097 0.182259 12.283179 -3.227466 88.679910 0.714437 2.776287 0.501683 0.919661 -1.664570 -0.167325 5.832928 0.766485 0.749830 -8.679420 -4.575679 -90.608284 -0.792886 19.426860 1.416205 -0.313921 2.107282 0.574052 -20.323566 10.906340 -2.753248 -5.610129 4.091762 0.188745 -6.845104 -7.699422 1.796956 0.011855 -0.075362 0.009850 -18.529338 10.317079 -3.255384 -1.710655 0.403586 -0.085325 -4.834321 -4.293507 2.067263 -0.000046 0.074738 0.021835
